# xmcd
#
# Track frame offsets:
#	150
#	3401
#	17894
#	33035
#	49277
#	66607
#	84575
#	98744
#	114299
#	131580
#	148996
#	162062
#	177583
#	195671
#	211732
#	228371
#	243857
#	264695
#	283412
#	301208
#	316187
#
# Disc length: 4395 seconds
#
# Revision: 0
# Processed by: cddbd v1.5.1PL0 Copyright (c) Steve Scherf et al.
# Submitted via: audiograbber 1.82.01
#
DISCID=28112915
DTITLE=Cap'Tain - Summer Session 2004
DYEAR=2004
DGENRE=Techno
TTITLE0=Intro  - Open Your Mind
TTITLE1=Joke Master - The Jocker
TTITLE2=Sustain Control - MotherFuckin' Dick
TTITLE3=Dirty Wave - New Energy
TTITLE4=Lobotomy Inc. - The Test (Special cap'Tain Mix)
TTITLE5=Dj Toff - The Dog
TTITLE6=Wolfgang Amadeus Bizarre - Wolfgang
TTITLE7=Klap's  - Lollipop
TTITLE8=Funky Tronic - Resonance
TTITLE9=Binum - Chapter Five
TTITLE10=Cruise Control - Tech Me Ailleurs
TTITLE11=Side Four  - Sub Rosa
TTITLE12=Dj LB  - Cross Over
TTITLE13=Dj Manu vs Dj HS - Industrial
TTITLE14=Cap'Tain Club - Welcome
TTITLE15=FVL - Seigneur
TTITLE16=Dj Furax vs Jacky Core - Polotraxx
TTITLE17=Major Bryce - The First Element
TTITLE18=Francesco Massimo - Las Tapas
TTITLE19=Stereophonia - Night Fall
TTITLE20=Gepetto - Pinocchio (major bryce et Dj LB remix)
EXTD=
EXTT0=
EXTT1=
EXTT2=
EXTT3=
EXTT4=
EXTT5=
EXTT6=
EXTT7=
EXTT8=
EXTT9=
EXTT10=
EXTT11=
EXTT12=
EXTT13=
EXTT14=
EXTT15=
EXTT16=
EXTT17=
EXTT18=
EXTT19=
EXTT20=
PLAYORDER=
